<svg width="248" height="216" viewBox="0 0 248 216" fill="none" xmlns="http://www.w3.org/2000/svg">
<path d="M0 14.0329C0 6.2828 5.19542 0 11.6042 0H235.951C242.36 0 247.556 6.2828 247.556 14.0329C247.556 21.7829 242.36 28.0657 235.951 28.0657H11.6042C5.19542 28.0657 0 21.7829 0 14.0329Z" fill="#212121" fill-opacity="0.8"/>
<path d="M0 107.586C0 99.836 5.19542 93.5532 11.6042 93.5532H235.951C242.36 93.5532 247.556 99.836 247.556 107.586C247.556 115.336 242.36 121.619 235.951 121.619H11.6042C5.19542 121.619 0 115.336 0 107.586Z" fill="#212121" fill-opacity="0.8"/>
<path d="M11.6042 187.103C5.19542 187.103 0 193.386 0 201.135C0 208.885 5.19542 215.168 11.6042 215.168H235.951C242.36 215.168 247.556 208.885 247.556 201.135C247.556 193.386 242.36 187.103 235.951 187.103H11.6042Z" fill="#212121" fill-opacity="0.8"/>
</svg>
